<svg width="200" height="62" viewBox="0 0 200 62" fill="none" xmlns="http://www.w3.org/2000/svg">
<g clip-path="url(#clip0_131_2342)">
<path d="M63.9443 17.4805C63.9443 17.4805 22.7612 14.7628 0.0549316 32.9123C0.0549316 32.9123 12.7518 17.9586 45.4718 14.7628C59.633 9.2456 74.0355 2.53106 90.7206 0.610158C107.406 -1.31074 136.056 1.72997 153.146 6.60544C153.146 6.60544 123.195 15.2409 107.16 14.5216C118.91 13.8756 133.773 7.24717 133.773 7.24717C114.405 2.20804 101.298 1.72997 87.3009 4.2883C73.3033 6.84663 51.1656 15.004 51.1656 15.004C54.0124 15.9644 63.9443 17.4848 63.9443 17.4848V17.4805ZM192.864 13.1649C192.864 13.1649 198.399 12.2863 199.945 9.96486C192.946 11.8039 168.203 10.3654 160.532 8.28515C149.933 13.5612 122.695 17.67 100.975 19.6383C153.146 16.4684 188.488 1.40695 199.019 31.4738C200.94 20.7581 192.864 13.1649 192.864 13.1649Z" fill="url(#paint0_linear_131_2342)"/>
<path d="M27.0207 29.9535C30.5136 25.3536 36.9913 22.2612 44.4121 22.2612C51.833 22.2612 58.4011 25.3967 61.8768 30.0525H57.178C53.9305 26.2839 48.3702 23.7988 42.0562 23.7988C35.7422 23.7988 30.2767 26.2409 27.0164 29.9535H27.0207Z" fill="#A2001D"/>
<path d="M144.019 27.5716C147.809 22.9718 154.847 19.8794 162.901 19.8794C170.955 19.8794 178.091 23.0149 181.864 27.6707H176.765C173.237 23.9021 167.203 21.417 160.347 21.417C153.49 21.417 147.559 23.859 144.019 27.5716Z" fill="#A2001D"/>
<path d="M9.60791 55.1857V53.8936C9.60791 53.5437 9.72904 53.2476 9.97131 53.0053C10.2225 52.7631 10.5231 52.6419 10.8731 52.6419H11.9229L14.4263 42.4533C15.2967 38.918 18.2128 37.1504 23.1748 37.1504H30.4428C30.7927 37.1504 31.0888 37.2715 31.3311 37.5138C31.5823 37.756 31.708 38.0521 31.708 38.4021V55.2126C31.708 55.5626 31.5823 55.8587 31.3311 56.101C31.0888 56.3342 30.7927 56.4509 30.4428 56.4509H10.8731C10.5231 56.4509 10.2225 56.3298 9.97131 56.0875C9.72904 55.8363 9.60791 55.5357 9.60791 55.1857ZM17.1047 52.6419H26.6473V40.9593H22.623C21.7706 40.9593 21.0662 41.1926 20.5099 41.6592C19.9536 42.1258 19.5722 42.7763 19.3659 43.6108L17.1047 52.6419Z" fill="#666872"/>
<path d="M35.3016 60.1656V42.5341C35.3016 42.2918 35.3778 42.0944 35.5304 41.9418C35.6919 41.7803 35.8893 41.6996 36.1226 41.6996H38.7202C38.9535 41.6996 39.1464 41.7803 39.299 41.9418C39.4605 42.0944 39.5412 42.2918 39.5412 42.5341V42.9378C40.9589 41.9329 42.6055 41.4304 44.4808 41.4304C46.3561 41.4304 47.9219 42.0944 49.178 43.4224C50.4342 44.7414 51.0623 46.6346 51.0623 49.1022C51.0623 51.5607 50.4118 53.445 49.1108 54.755C47.8097 56.0651 46.0555 56.7201 43.8482 56.7201C42.7086 56.7201 41.4121 56.4913 39.9585 56.0337V60.1656C39.9585 60.4079 39.8777 60.6053 39.7162 60.7578C39.5637 60.9194 39.3708 61.0001 39.1375 61.0001H36.1226C35.8893 61.0001 35.6919 60.9194 35.5304 60.7578C35.3778 60.6053 35.3016 60.4079 35.3016 60.1656ZM39.9585 52.9246C41.116 53.2925 42.0895 53.4764 42.8791 53.4764C44.1084 53.4764 44.9788 53.1265 45.4902 52.4266C46.0106 51.7267 46.2709 50.6096 46.2709 49.0752C46.2709 47.5409 46.0241 46.4283 45.5306 45.7373C45.0461 45.0375 44.3148 44.6875 43.3367 44.6875C42.3677 44.6875 41.2416 45.0913 39.9585 45.8989V52.9246Z" fill="#666872"/>
<path d="M54.4944 55.4818C53.31 54.6563 52.7178 53.4899 52.7178 51.9824C52.7178 50.475 53.31 49.3175 54.4944 48.5099C55.6878 47.7024 57.2222 47.2986 59.0975 47.2986H63.5525C63.5525 46.2488 63.3327 45.5175 62.893 45.1048C62.4533 44.692 61.6817 44.4856 60.578 44.4856C59.4833 44.4856 58.7117 44.7593 58.263 45.3067C57.8234 45.845 57.2805 46.1142 56.6345 46.1142H54.629C54.3868 46.1142 54.1849 46.0379 54.0234 45.8854C53.8708 45.7239 53.7946 45.5265 53.7946 45.2932C53.7946 42.718 56.2397 41.4304 61.1298 41.4304C63.2654 41.4304 64.9792 41.9104 66.2713 42.8705C67.5634 43.8216 68.2094 45.2977 68.2094 47.2986V55.6299C68.2094 55.8721 68.1331 56.0695 67.9806 56.2221C67.8281 56.3746 67.6307 56.4509 67.3884 56.4509H64.7908C64.5485 56.4509 64.3511 56.3746 64.1985 56.2221C64.046 56.0606 63.9697 55.8632 63.9697 55.6299V55.2126C62.552 56.2266 60.9145 56.7291 59.0571 56.7201C57.2087 56.7201 55.6878 56.3073 54.4944 55.4818ZM59.4205 50.3539C58.7924 50.3539 58.2944 50.5064 57.9265 50.8115C57.5676 51.1166 57.3882 51.5114 57.3882 51.9959C57.3882 52.4804 57.5766 52.8797 57.9535 53.1938C58.3303 53.5078 58.8642 53.6648 59.5551 53.6648C60.9369 53.6648 62.2694 53.2611 63.5525 52.4535V50.3539H59.4205Z" fill="#666872"/>
<path d="M71.5338 55.6299V42.5341C71.5338 42.2918 71.6101 42.0944 71.7626 41.9418C71.9241 41.7803 72.1215 41.6996 72.3548 41.6996H75.1678C75.4101 41.6996 75.6075 41.7803 75.76 41.9418C75.9215 42.0944 76.0023 42.2918 76.0023 42.5341V51.3768L80.7399 42.6686C80.8835 42.3905 81.1033 42.1617 81.3994 41.9822C81.6955 41.7938 81.9827 41.6996 82.2608 41.6996H86.0294C86.2717 41.6996 86.4691 41.7803 86.6216 41.9418C86.7831 42.0944 86.8639 42.2918 86.8639 42.5341V55.6299C86.8639 55.8721 86.7831 56.0695 86.6216 56.2221C86.4691 56.3746 86.2717 56.4509 86.0294 56.4509H83.2164C82.9742 56.4509 82.7768 56.3746 82.6242 56.2221C82.4717 56.0606 82.3954 55.8632 82.3954 55.6299V46.8006L77.6578 55.4818C77.5142 55.742 77.2944 55.9708 76.9983 56.1683C76.7022 56.3567 76.415 56.4509 76.1369 56.4509H72.3548C72.1126 56.4509 71.9152 56.3746 71.7626 56.2221C71.6101 56.0695 71.5338 55.8721 71.5338 55.6299ZM74.6698 36.5985C74.6698 36.1409 74.9211 35.9121 75.4235 35.9121H76.433C76.8727 35.9121 77.1867 36.1409 77.3751 36.5985C77.6712 37.3343 78.2769 37.7022 79.1921 37.7022C80.1163 37.7022 80.722 37.3343 81.0091 36.5985C81.1886 36.1409 81.5026 35.9121 81.9513 35.9121H82.9742C83.4677 35.9121 83.7144 36.1409 83.7144 36.5985C83.7144 37.6484 83.2972 38.5097 82.4627 39.1827C81.6283 39.8557 80.5381 40.1921 79.1921 40.1921C77.8552 40.1921 76.765 39.8557 75.9215 39.1827C75.0871 38.5097 74.6698 37.6484 74.6698 36.5985Z" fill="#666872"/>
<path d="M90.1614 55.6299V42.5341C90.1614 42.2918 90.2377 42.0944 90.3902 41.9418C90.5517 41.7803 90.7491 41.6996 90.9824 41.6996H99.031C100.745 41.6996 102.131 42.0316 103.19 42.6956C104.258 43.3596 104.792 44.36 104.792 45.697C104.792 47.0249 104.24 48.0299 103.136 48.7118C104.706 49.5014 105.491 50.6724 105.491 52.2247C105.491 53.777 104.985 54.8717 103.971 55.5087C102.957 56.1368 101.503 56.4509 99.6098 56.4509H90.9824C90.7491 56.4509 90.5517 56.3746 90.3902 56.2221C90.2377 56.0606 90.1614 55.8632 90.1614 55.6299ZM94.8183 53.4495H99.2868C99.7803 53.4495 100.157 53.3104 100.417 53.0322C100.687 52.7541 100.821 52.3862 100.821 51.9286C100.821 51.471 100.687 51.1031 100.417 50.8249C100.157 50.5468 99.7803 50.4077 99.2868 50.4077H94.8183V53.4495ZM94.8183 47.4601H98.7619C99.1656 47.4601 99.4931 47.3345 99.7444 47.0833C100.005 46.8231 100.135 46.4911 100.135 46.0873C100.135 45.6835 100.005 45.356 99.7444 45.1048C99.4931 44.8446 99.1656 44.7144 98.7619 44.7144H94.8183V47.4601Z" fill="#666872"/>
<path d="M116.541 50.9057C116.541 50.3763 116.699 49.9994 117.013 49.7751C117.327 49.5418 117.632 49.4252 117.928 49.4252H119.516C120.324 49.4252 120.97 49.9187 121.454 50.9057C122.064 52.135 123.163 52.7541 124.752 52.7631H127.43C129.135 52.7631 130.369 52.4535 131.131 51.8344C131.903 51.2153 132.325 50.143 132.396 48.6176H125.169C124.819 48.6176 124.518 48.4965 124.267 48.2542C124.025 48.003 123.904 47.7024 123.904 47.3525V46.2219C123.904 45.8719 124.025 45.5758 124.267 45.3336C124.518 45.0823 124.819 44.9567 125.169 44.9567H132.396C132.307 43.4493 131.885 42.3905 131.131 41.7803C130.378 41.1612 129.144 40.8516 127.43 40.8516H125.034C123.437 40.8516 122.333 41.4663 121.723 42.6956C121.248 43.6915 120.606 44.1895 119.799 44.1895H118.197C117.775 44.1895 117.439 44.0325 117.188 43.7185C116.945 43.4044 116.824 43.0634 116.824 42.6956C116.824 41.5381 117.214 40.5197 117.995 39.6403C118.776 38.752 119.745 38.097 120.902 37.6753C122.06 37.2535 123.28 37.0427 124.563 37.0427H127.565C130.894 37.0427 133.388 37.8413 135.048 39.4384C136.717 41.0266 137.551 43.4852 137.551 46.8141C137.551 50.134 136.717 52.5881 135.048 54.1763C133.388 55.7645 130.894 56.5586 127.565 56.5586H124.294C123.011 56.5586 121.786 56.3477 120.62 55.926C119.462 55.5043 118.493 54.8537 117.712 53.9744C116.932 53.0861 116.541 52.0632 116.541 50.9057Z" fill="#A2001D"/>
<path d="M138.561 55.5626L140.983 45.7777C141.665 43.059 143.918 41.6996 147.74 41.6996H154.106C154.339 41.6996 154.532 41.7803 154.685 41.9418C154.846 42.0944 154.927 42.2918 154.927 42.5341V55.6299C154.927 55.8632 154.846 56.0606 154.685 56.2221C154.532 56.3746 154.339 56.4509 154.106 56.4509H151.091C150.858 56.4509 150.661 56.3746 150.499 56.2221C150.347 56.0606 150.27 55.8632 150.27 55.6299V44.9567H147.74C146.484 44.9567 145.69 45.6162 145.358 46.9352L143.245 55.4549C143.164 55.751 143.002 55.9933 142.76 56.1817C142.527 56.3612 142.276 56.4509 142.006 56.4509H139.247C139.005 56.4509 138.821 56.3791 138.695 56.2355C138.579 56.083 138.52 55.9529 138.52 55.8452C138.52 55.7376 138.534 55.6433 138.561 55.5626Z" fill="#A2001D"/>
<path d="M158.238 55.6299V42.5341C158.238 42.2918 158.314 42.0944 158.467 41.9418C158.629 41.7803 158.826 41.6996 159.059 41.6996H161.872C162.114 41.6996 162.312 41.7803 162.464 41.9418C162.626 42.0944 162.707 42.2918 162.707 42.5341V51.3768L167.444 42.6686C167.588 42.3905 167.808 42.1617 168.104 41.9822C168.4 41.7938 168.687 41.6996 168.965 41.6996H172.734C172.976 41.6996 173.173 41.7803 173.326 41.9418C173.487 42.0944 173.568 42.2918 173.568 42.5341V55.6299C173.568 55.8721 173.487 56.0695 173.326 56.2221C173.173 56.3746 172.976 56.4509 172.734 56.4509H169.921C169.679 56.4509 169.481 56.3746 169.329 56.2221C169.176 56.0606 169.1 55.8632 169.1 55.6299V46.8006L164.362 55.4818C164.219 55.742 163.999 55.9708 163.703 56.1683C163.407 56.3567 163.119 56.4509 162.841 56.4509H159.059C158.817 56.4509 158.62 56.3746 158.467 56.2221C158.314 56.0695 158.238 55.8721 158.238 55.6299Z" fill="#A2001D"/>
<path d="M175.479 44.1357V42.5341C175.479 42.2918 175.556 42.0944 175.708 41.9418C175.87 41.7803 176.072 41.6996 176.314 41.6996H189.571C189.814 41.6996 190.011 41.7803 190.163 41.9418C190.316 42.0944 190.392 42.2918 190.392 42.5341V44.1357C190.392 44.369 190.316 44.5664 190.163 44.7279C190.011 44.8804 189.814 44.9567 189.571 44.9567H185.278V55.6299C185.278 55.8632 185.197 56.0606 185.036 56.2221C184.883 56.3746 184.686 56.4509 184.443 56.4509H181.442C181.2 56.4509 180.998 56.3746 180.836 56.2221C180.684 56.0606 180.607 55.8632 180.607 55.6299V44.9567H176.314C176.072 44.9567 175.87 44.8804 175.708 44.7279C175.556 44.5664 175.479 44.369 175.479 44.1357Z" fill="#A2001D"/>
</g>
<defs>
<linearGradient id="paint0_linear_131_2342" x1="0.0549316" y1="16.4727" x2="199.945" y2="16.4727" gradientUnits="userSpaceOnUse">
<stop stop-color="#606060"/>
<stop offset="0.31" stop-color="#908A90"/>
<stop offset="0.55" stop-color="#BDBDBD"/>
<stop offset="0.82" stop-color="#807B82"/>
<stop offset="1" stop-color="#A3A3A3"/>
</linearGradient>
<clipPath id="clip0_131_2342">
<rect width="200" height="61" fill="white" transform="translate(0 0.0136719)"/>
</clipPath>
</defs>
</svg>
